<svg height="2542" width="720" xmlns="http://www.w3.org/2000/svg">
<rect height="2542" fill="#555" width="720"></rect>
<text fill="#7f7" font-family="Courier New" font-size="12" xml:space="preserve">
<tspan x="10" y="26">13 megabytes installed</tspan>
<tspan x="10" y="42"></tspan>
<tspan x="10" y="58">node_modules</tspan>
<tspan x="10" y="74">└─┬ remap-istanbul@0.9.5 </tspan>
<tspan x="10" y="90">  ├── amdefine@1.0.1 </tspan>
<tspan x="10" y="106">  ├─┬ gulp-util@3.0.7 </tspan>
<tspan x="10" y="122">  │ ├── array-differ@1.0.0 </tspan>
<tspan x="10" y="138">  │ ├── array-uniq@1.0.3 </tspan>
<tspan x="10" y="154">  │ ├── beeper@1.1.1 </tspan>
<tspan x="10" y="170">  │ ├─┬ chalk@1.1.3 </tspan>
<tspan x="10" y="186">  │ │ ├── ansi-styles@2.2.1 </tspan>
<tspan x="10" y="202">  │ │ ├── escape-string-regexp@1.0.5 </tspan>
<tspan x="10" y="218">  │ │ ├─┬ has-ansi@2.0.0 </tspan>
<tspan x="10" y="234">  │ │ │ └── ansi-regex@2.1.1 </tspan>
<tspan x="10" y="250">  │ │ ├── strip-ansi@3.0.1 </tspan>
<tspan x="10" y="266">  │ │ └── supports-color@2.0.0 </tspan>
<tspan x="10" y="282">  │ ├─┬ dateformat@1.0.12 </tspan>
<tspan x="10" y="298">  │ │ ├── get-stdin@4.0.1 </tspan>
<tspan x="10" y="314">  │ │ └─┬ meow@3.7.0 </tspan>
<tspan x="10" y="330">  │ │   ├─┬ camelcase-keys@2.1.0 </tspan>
<tspan x="10" y="346">  │ │   │ └── camelcase@2.1.1 </tspan>
<tspan x="10" y="362">  │ │   ├── decamelize@1.2.0 </tspan>
<tspan x="10" y="378">  │ │   ├─┬ loud-rejection@1.6.0 </tspan>
<tspan x="10" y="394">  │ │   │ ├─┬ currently-unhandled@0.4.1 </tspan>
<tspan x="10" y="410">  │ │   │ │ └── array-find-index@1.0.2 </tspan>
<tspan x="10" y="426">  │ │   │ └── signal-exit@3.0.2 </tspan>
<tspan x="10" y="442">  │ │   ├── map-obj@1.0.1 </tspan>
<tspan x="10" y="458">  │ │   ├─┬ normalize-package-data@2.3.8 </tspan>
<tspan x="10" y="474">  │ │   │ ├── hosted-git-info@2.4.2 </tspan>
<tspan x="10" y="490">  │ │   │ ├─┬ is-builtin-module@1.0.0 </tspan>
<tspan x="10" y="506">  │ │   │ │ └── builtin-modules@1.1.1 </tspan>
<tspan x="10" y="522">  │ │   │ ├── semver@5.3.0 </tspan>
<tspan x="10" y="538">  │ │   │ └─┬ validate-npm-package-license@3.0.1 </tspan>
<tspan x="10" y="554">  │ │   │   ├─┬ spdx-correct@1.0.2 </tspan>
<tspan x="10" y="570">  │ │   │   │ └── spdx-license-ids@1.2.2 </tspan>
<tspan x="10" y="586">  │ │   │   └── spdx-expression-parse@1.0.4 </tspan>
<tspan x="10" y="602">  │ │   ├── object-assign@4.1.1 </tspan>
<tspan x="10" y="618">  │ │   ├─┬ read-pkg-up@1.0.1 </tspan>
<tspan x="10" y="634">  │ │   │ ├─┬ find-up@1.1.2 </tspan>
<tspan x="10" y="650">  │ │   │ │ ├── path-exists@2.1.0 </tspan>
<tspan x="10" y="666">  │ │   │ │ └─┬ pinkie-promise@2.0.1 </tspan>
<tspan x="10" y="682">  │ │   │ │   └── pinkie@2.0.4 </tspan>
<tspan x="10" y="698">  │ │   │ └─┬ read-pkg@1.1.0 </tspan>
<tspan x="10" y="714">  │ │   │   ├─┬ load-json-file@1.1.0 </tspan>
<tspan x="10" y="730">  │ │   │   │ ├── graceful-fs@4.1.11 </tspan>
<tspan x="10" y="746">  │ │   │   │ ├─┬ parse-json@2.2.0 </tspan>
<tspan x="10" y="762">  │ │   │   │ │ └─┬ error-ex@1.3.1 </tspan>
<tspan x="10" y="778">  │ │   │   │ │   └── is-arrayish@0.2.1 </tspan>
<tspan x="10" y="794">  │ │   │   │ ├── pify@2.3.0 </tspan>
<tspan x="10" y="810">  │ │   │   │ └─┬ strip-bom@2.0.0 </tspan>
<tspan x="10" y="826">  │ │   │   │   └── is-utf8@0.2.1 </tspan>
<tspan x="10" y="842">  │ │   │   └── path-type@1.1.0 </tspan>
<tspan x="10" y="858">  │ │   ├─┬ redent@1.0.0 </tspan>
<tspan x="10" y="874">  │ │   │ ├─┬ indent-string@2.1.0 </tspan>
<tspan x="10" y="890">  │ │   │ │ └─┬ repeating@2.0.1 </tspan>
<tspan x="10" y="906">  │ │   │ │   └─┬ is-finite@1.0.2 </tspan>
<tspan x="10" y="922">  │ │   │ │     └── number-is-nan@1.0.1 </tspan>
<tspan x="10" y="938">  │ │   │ └── strip-indent@1.0.1 </tspan>
<tspan x="10" y="954">  │ │   └── trim-newlines@1.0.0 </tspan>
<tspan x="10" y="970">  │ ├─┬ fancy-log@1.3.0 </tspan>
<tspan x="10" y="986">  │ │ └── time-stamp@1.0.1 </tspan>
<tspan x="10" y="1002">  │ ├─┬ gulplog@1.0.0 </tspan>
<tspan x="10" y="1018">  │ │ └── glogg@1.0.0 </tspan>
<tspan x="10" y="1034">  │ ├─┬ has-gulplog@0.1.0 </tspan>
<tspan x="10" y="1050">  │ │ └── sparkles@1.0.0 </tspan>
<tspan x="10" y="1066">  │ ├── lodash._reescape@3.0.0 </tspan>
<tspan x="10" y="1082">  │ ├── lodash._reevaluate@3.0.0 </tspan>
<tspan x="10" y="1098">  │ ├── lodash._reinterpolate@3.0.0 </tspan>
<tspan x="10" y="1114">  │ ├─┬ lodash.template@3.6.2 </tspan>
<tspan x="10" y="1130">  │ │ ├── lodash._basecopy@3.0.1 </tspan>
<tspan x="10" y="1146">  │ │ ├── lodash._basetostring@3.0.1 </tspan>
<tspan x="10" y="1162">  │ │ ├── lodash._basevalues@3.0.0 </tspan>
<tspan x="10" y="1178">  │ │ ├── lodash._isiterateecall@3.0.9 </tspan>
<tspan x="10" y="1194">  │ │ ├─┬ lodash.escape@3.2.0 </tspan>
<tspan x="10" y="1210">  │ │ │ └── lodash._root@3.0.1 </tspan>
<tspan x="10" y="1226">  │ │ ├─┬ lodash.keys@3.1.2 </tspan>
<tspan x="10" y="1242">  │ │ │ ├── lodash._getnative@3.9.1 </tspan>
<tspan x="10" y="1258">  │ │ │ ├── lodash.isarguments@3.1.0 </tspan>
<tspan x="10" y="1274">  │ │ │ └── lodash.isarray@3.0.4 </tspan>
<tspan x="10" y="1290">  │ │ ├── lodash.restparam@3.6.1 </tspan>
<tspan x="10" y="1306">  │ │ └── lodash.templatesettings@3.1.1 </tspan>
<tspan x="10" y="1322">  │ ├── minimist@1.2.0 </tspan>
<tspan x="10" y="1338">  │ ├─┬ multipipe@0.1.2 </tspan>
<tspan x="10" y="1354">  │ │ └─┬ duplexer2@0.0.2 </tspan>
<tspan x="10" y="1370">  │ │   └─┬ readable-stream@1.1.14 </tspan>
<tspan x="10" y="1386">  │ │     └── isarray@0.0.1 </tspan>
<tspan x="10" y="1402">  │ ├── object-assign@3.0.0 </tspan>
<tspan x="10" y="1418">  │ ├── replace-ext@0.0.1 </tspan>
<tspan x="10" y="1434">  │ └─┬ vinyl@0.5.3 </tspan>
<tspan x="10" y="1450">  │   ├── clone@1.0.2 </tspan>
<tspan x="10" y="1466">  │   └── clone-stats@0.0.1 </tspan>
<tspan x="10" y="1482">  ├─┬ istanbul@0.4.5 </tspan>
<tspan x="10" y="1498">  │ ├── abbrev@1.0.9 </tspan>
<tspan x="10" y="1514">  │ ├── async@1.5.2 </tspan>
<tspan x="10" y="1530">  │ ├─┬ escodegen@1.8.1 </tspan>
<tspan x="10" y="1546">  │ │ ├── estraverse@1.9.3 </tspan>
<tspan x="10" y="1562">  │ │ ├── esutils@2.0.2 </tspan>
<tspan x="10" y="1578">  │ │ ├─┬ optionator@0.8.2 </tspan>
<tspan x="10" y="1594">  │ │ │ ├── deep-is@0.1.3 </tspan>
<tspan x="10" y="1610">  │ │ │ ├── fast-levenshtein@2.0.6 </tspan>
<tspan x="10" y="1626">  │ │ │ ├── levn@0.3.0 </tspan>
<tspan x="10" y="1642">  │ │ │ ├── prelude-ls@1.1.2 </tspan>
<tspan x="10" y="1658">  │ │ │ └── type-check@0.3.2 </tspan>
<tspan x="10" y="1674">  │ │ └── source-map@0.2.0 </tspan>
<tspan x="10" y="1690">  │ ├── esprima@2.7.3 </tspan>
<tspan x="10" y="1706">  │ ├─┬ glob@5.0.15 </tspan>
<tspan x="10" y="1722">  │ │ ├── inflight@1.0.6 </tspan>
<tspan x="10" y="1738">  │ │ ├── inherits@2.0.3 </tspan>
<tspan x="10" y="1754">  │ │ └── path-is-absolute@1.0.1 </tspan>
<tspan x="10" y="1770">  │ ├─┬ handlebars@4.0.6 </tspan>
<tspan x="10" y="1786">  │ │ ├─┬ optimist@0.6.1 </tspan>
<tspan x="10" y="1802">  │ │ │ ├── minimist@0.0.10 </tspan>
<tspan x="10" y="1818">  │ │ │ └── wordwrap@0.0.3 </tspan>
<tspan x="10" y="1834">  │ │ ├── source-map@0.4.4 </tspan>
<tspan x="10" y="1850">  │ │ └─┬ uglify-js@2.8.22 </tspan>
<tspan x="10" y="1866">  │ │   ├── uglify-to-browserify@1.0.2 </tspan>
<tspan x="10" y="1882">  │ │   └─┬ yargs@3.10.0 </tspan>
<tspan x="10" y="1898">  │ │     ├── camelcase@1.2.1 </tspan>
<tspan x="10" y="1914">  │ │     ├─┬ cliui@2.1.0 </tspan>
<tspan x="10" y="1930">  │ │     │ ├─┬ center-align@0.1.3 </tspan>
<tspan x="10" y="1946">  │ │     │ │ ├─┬ align-text@0.1.4 </tspan>
<tspan x="10" y="1962">  │ │     │ │ │ ├─┬ kind-of@3.1.0 </tspan>
<tspan x="10" y="1978">  │ │     │ │ │ │ └── is-buffer@1.1.5 </tspan>
<tspan x="10" y="1994">  │ │     │ │ │ ├── longest@1.0.1 </tspan>
<tspan x="10" y="2010">  │ │     │ │ │ └── repeat-string@1.6.1 </tspan>
<tspan x="10" y="2026">  │ │     │ │ └── lazy-cache@1.0.4 </tspan>
<tspan x="10" y="2042">  │ │     │ ├── right-align@0.1.3 </tspan>
<tspan x="10" y="2058">  │ │     │ └── wordwrap@0.0.2 </tspan>
<tspan x="10" y="2074">  │ │     └── window-size@0.1.0 </tspan>
<tspan x="10" y="2090">  │ ├─┬ js-yaml@3.8.3 </tspan>
<tspan x="10" y="2106">  │ │ ├─┬ argparse@1.0.9 </tspan>
<tspan x="10" y="2122">  │ │ │ └── sprintf-js@1.0.3 </tspan>
<tspan x="10" y="2138">  │ │ └── esprima@3.1.3 </tspan>
<tspan x="10" y="2154">  │ ├─┬ mkdirp@0.5.1 </tspan>
<tspan x="10" y="2170">  │ │ └── minimist@0.0.8 </tspan>
<tspan x="10" y="2186">  │ ├── nopt@3.0.6 </tspan>
<tspan x="10" y="2202">  │ ├─┬ once@1.4.0 </tspan>
<tspan x="10" y="2218">  │ │ └── wrappy@1.0.2 </tspan>
<tspan x="10" y="2234">  │ ├── resolve@1.1.7 </tspan>
<tspan x="10" y="2250">  │ ├─┬ supports-color@3.2.3 </tspan>
<tspan x="10" y="2266">  │ │ └── has-flag@1.0.0 </tspan>
<tspan x="10" y="2282">  │ ├─┬ which@1.2.14 </tspan>
<tspan x="10" y="2298">  │ │ └── isexe@2.0.0 </tspan>
<tspan x="10" y="2314">  │ └── wordwrap@1.0.0 </tspan>
<tspan x="10" y="2330">  ├─┬ minimatch@3.0.3 </tspan>
<tspan x="10" y="2346">  │ └─┬ brace-expansion@1.1.7 </tspan>
<tspan x="10" y="2362">  │   ├── balanced-match@0.4.2 </tspan>
<tspan x="10" y="2378">  │   └── concat-map@0.0.1 </tspan>
<tspan x="10" y="2394">  ├── source-map@0.5.6 </tspan>
<tspan x="10" y="2410">  └─┬ through2@2.0.1 </tspan>
<tspan x="10" y="2426">    ├─┬ readable-stream@2.0.6 </tspan>
<tspan x="10" y="2442">    │ ├── core-util-is@1.0.2 </tspan>
<tspan x="10" y="2458">    │ ├── isarray@1.0.0 </tspan>
<tspan x="10" y="2474">    │ ├── process-nextick-args@1.0.7 </tspan>
<tspan x="10" y="2490">    │ ├── string_decoder@0.10.31 </tspan>
<tspan x="10" y="2506">    │ └── util-deprecate@1.0.2 </tspan>
<tspan x="10" y="2522">    └── xtend@4.0.1</tspan>
</text>
</svg>
